<?xml version="1.0" encoding="utf-8"?>
<!-- Generator: Adobe Illustrator 21.1.0, SVG Export Plug-In . SVG Version: 6.00 Build 0)  -->
<svg version="1.1" id="レイヤー_1" xmlns="http://www.w3.org/2000/svg" xmlns:xlink="http://www.w3.org/1999/xlink" x="0px"
	 y="0px" viewBox="0 0 415 335" enable-background="new 0 0 415 335" xml:space="preserve">
<g>
	<path fill="#F85032" d="M287.5,255c-1.919,0-3.839-0.732-5.304-2.196l-40-40c-1.406-1.407-2.196-3.314-2.196-5.304
		s0.79-3.896,2.196-5.304l74.697-74.696L287.5,98.106l-74.696,74.697c-2.931,2.93-7.679,2.93-10.607,0l-40-40
		c-2.929-2.929-2.929-7.678,0-10.606L236.894,47.5l-34.697-34.697c-2.145-2.145-2.787-5.371-1.626-8.173
		C201.732,1.827,204.466,0,207.5,0h80c1.989,0,3.896,0.79,5.304,2.197l120,120c2.929,2.929,2.929,7.678,0,10.606l-120,120
		C291.339,254.267,289.419,255,287.5,255z M258.107,207.5l29.394,29.394L396.894,127.5L284.394,15h-58.787l27.197,27.197
		c2.929,2.929,2.929,7.678,0,10.606L178.107,127.5l29.394,29.394l74.696-74.697c2.93-2.929,7.678-2.929,10.607,0l40,40
		c2.929,2.929,2.929,7.678,0,10.606L258.107,207.5z"/>
	<path fill="#F85032" d="M207.5,335c-1.919,0-3.839-0.732-5.303-2.196l-200-200c-2.929-2.929-2.929-7.678,0-10.606l120-120
		C123.603,0.79,125.511,0,127.5,0h80c3.033,0,5.769,1.827,6.929,4.63c1.161,2.803,0.52,6.028-1.625,8.173L98.107,127.5
		l154.697,154.696c2.929,2.93,2.929,7.678,0,10.607l-40,40C211.339,334.267,209.419,335,207.5,335z M18.107,127.5L207.5,316.893
		l29.394-29.394L82.197,132.803c-2.929-2.929-2.929-7.678,0-10.606L189.394,15h-58.787L18.107,127.5z"/>
</g>
</svg>
